# xmcd
#
# Track frame offsets:
# 150
# 20122
# 34922
# 64203
# 81746
# 102540
# 120201
# 141758
# 159455
#
# Disc length: 2452 seconds
#
#
# Revision: 0
# Processed by: cddbd v1.5.2PL0 Copyright (c) Steve Scherf et al.
# Submitted via: FreeRIP 2.945 
#
DISCID=7d099209
DTITLE=BB and THE STINGERS - B.B. and THE STINGERS
DYEAR=1900
DGENRE=Rock and Roll
TTITLE0=PAID IN FULL
TTITLE1=HAUNTED HOUSE
TTITLE2=THE WHISTLE BLOWS AT MIDNIGHT
TTITLE3=THE CALM BEFORE THE STORM
TTITLE4=TERRAPLANE BLUES
TTITLE5=DRIVE ME CRAZY
TTITLE6=A DIFFERENT SIDE OF YOU
TTITLE7=THE LONG ROAD
TTITLE8=TEARS
EXTD=LOVE YOU BERNIE!
EXTT0=
EXTT1=
EXTT2=
EXTT3=
EXTT4=
EXTT5=
EXTT6=
EXTT7=
EXTT8=
PLAYORDER=
